<svg width="1122" height="230" viewBox="0 0 1122 230" fill="none" xmlns="http://www.w3.org/2000/svg">
<g clip-path="url(#clip0_2603_512)">
<path d="M774.253 53.4596C774.253 21.1557 752.356 0.240234 720.423 0.240234H609.951V49.927H646.108V31.5034H710.385C721.233 31.5034 738.106 31.5034 738.106 53.4596C738.106 75.2057 721.233 75.2056 710.385 75.2056H660.919H646.118H609.961V145.197H646.118V106.469H704.361L727.058 145.197H769.639L743.73 102.126C762.604 94.4699 774.253 77.067 774.253 53.4596Z" fill="white"/>
<path d="M424.094 72.5237C424.094 25.8091 450.673 0.240234 512.679 0.240234C574.495 0.240234 601.265 26.0093 601.265 72.5237C601.265 119.238 574.485 145.207 512.679 145.207C450.673 145.207 424.094 119.428 424.094 72.5237ZM565.028 72.5237C565.028 43.9325 550.537 30.6427 512.679 30.6427C474.831 30.6427 460.331 43.7324 460.331 72.5237C460.331 101.515 475.031 114.805 512.679 114.805C550.327 114.805 565.028 101.315 565.028 72.5237Z" fill="white"/>
<path d="M1010.07 0.240234L949.071 145.207H989.201L1034.49 27.7806L1080.49 145.207H1120.62L1058.92 0.240234H1010.07Z" fill="#EA5D1D"/>
<path d="M938.694 31.5133L831.845 113.934H938.694V145.207H780.026V113.934L886.675 31.5133H780.026V0.240234H938.694V31.5133Z" fill="#EA5D1D"/>
<path d="M424.753 31.4633V0.240234H308.197H274.232H274.002V26.99V79.5088V144.987H310.669V99.7038H412.534V68.2705H310.669V31.4633H424.753Z" fill="white"/>
<path d="M192.182 0H105.728V49.4966H178.702H178.932C175.33 57.5425 170.396 64.988 164.381 71.6329C162.9 73.4843 161.369 75.3157 159.768 77.127L157.616 79.5588C118.838 123.361 56.9821 140.083 0 126.503C25.3287 143.286 55.3009 153.233 89.2259 153.233C137.001 153.233 179.693 133.509 207.603 102.736V144.367H263.174V0H192.182Z" fill="#EA5D1D"/>
<path d="M536.086 205.273C536.086 219.663 526.729 229.34 512.609 229.34H496.188V180.935H512.609C526.739 180.935 536.086 190.612 536.086 205.273ZM530.922 205.273C530.922 193.104 523.468 185.058 512.219 185.058H501.161V225.217H512.219C523.468 225.217 530.922 217.171 530.922 205.273Z" fill="white"/>
<path d="M576.578 225.217V229.34H546.165V180.935H575.997V185.058H551.139V202.591H574.356V206.714H551.139V225.227H576.578V225.217Z" fill="white"/>
<path d="M614.906 225.217V229.34H587.045V180.935H592.019V225.217H614.906Z" fill="white"/>
<path d="M622.421 180.935H627.395V229.34H622.421V180.935Z" fill="white"/>
<path d="M634.199 180.935H639.563L657.817 223.386L676.07 180.935H681.364L660.168 229.34H655.455L634.199 180.935Z" fill="white"/>
<path d="M718.642 225.217V229.34H688.229V180.935H718.062V185.058H693.203V202.591H716.419V206.714H693.203V225.227H718.642V225.217Z" fill="white"/>
<path d="M760.693 229.34L747.804 209.586H746.693H734.063V229.34H729.09V180.935H746.943C756.75 180.935 763.165 186.629 763.165 195.255C763.165 201.86 759.242 206.834 752.827 208.725L766.567 229.33H760.693V229.34ZM734.074 205.463H746.303C753.298 205.463 758.011 201.34 758.011 195.255C758.011 189.111 753.368 185.048 746.303 185.048H734.074V205.463Z" fill="white"/>
<path d="M808.178 180.935L790.254 209.716V229.34H785.281V209.716L767.357 180.935H772.781L787.822 205.263L802.734 180.935H808.178Z" fill="white"/>
<path d="M841.673 186.688L838.991 201.859H861.428L860.377 207.614H838.011L835.199 223.575H860.057L859.006 229.33H827.223L835.789 180.924H866.992L865.941 186.678H841.673V186.688Z" fill="white"/>
<path d="M892.49 204.092L905.83 229.34H897.654L887.516 209.586L870.444 229.34H862.598L884.644 204.482L872.415 180.935H880.591L889.548 198.988L904.919 180.935H912.765L892.49 204.092Z" fill="white"/>
<path d="M952.865 193.494C952.865 204.092 944.489 211.747 933.571 211.747H921.992L918.85 229.34H911.915L920.481 180.935H938.795C947.501 180.935 952.865 185.838 952.865 193.494ZM945.67 194.084C945.67 189.571 942.598 186.689 937.364 186.689H926.376L922.973 205.983H933.571C940.626 205.983 945.67 200.819 945.67 194.084Z" fill="white"/>
<path d="M984.388 209.386L994.005 229.34H986.029L977.333 210.506H976.873H965.294L961.962 229.34H955.026L963.593 180.935H982.367C991.263 180.935 996.687 185.778 996.687 193.294C996.687 201.21 991.583 207.034 984.388 209.386ZM966.335 204.742H976.993C984.708 204.742 989.482 200.029 989.482 193.954C989.482 189.441 986.34 186.689 980.915 186.689H969.467L966.335 204.742Z" fill="white"/>
<path d="M1016.04 186.688L1013.36 201.859H1035.8L1034.75 207.614H1012.38L1009.57 223.575H1034.43L1033.38 229.33H1001.59L1010.16 180.924H1041.36L1040.31 186.678H1016.04V186.688Z" fill="white"/>
<path d="M1041.88 223.976L1045.02 219.533C1048.56 223.126 1053 224.247 1057.58 224.247C1064.65 224.247 1070.4 220.844 1070.4 215.61C1070.4 211.747 1066.41 209.916 1060.65 208.085L1057.77 207.234C1051.56 205.333 1046.45 202.461 1046.45 196.176C1046.45 186.689 1055.02 180.284 1065.88 180.284C1072.42 180.284 1077.2 182.376 1080.73 185.978L1077.07 190.562C1074.12 187.489 1070.46 186.048 1065.69 186.048C1059.08 186.048 1053.78 189.641 1053.78 194.615C1053.78 198.217 1057.24 199.719 1061.63 201.029L1064.57 201.95C1070.85 203.852 1077.65 207.114 1077.65 214.439C1077.65 223.856 1068.55 230.001 1057.5 230.001C1050.91 229.991 1045.15 227.899 1041.88 223.976Z" fill="white"/>
<path d="M1082.76 223.976L1085.9 219.533C1089.44 223.126 1093.88 224.247 1098.46 224.247C1105.53 224.247 1111.28 220.844 1111.28 215.61C1111.28 211.747 1107.29 209.916 1101.53 208.085L1098.65 207.234C1092.44 205.333 1087.33 202.461 1087.33 196.176C1087.33 186.689 1095.9 180.284 1106.76 180.284C1113.3 180.284 1118.08 182.376 1121.61 185.978L1117.95 190.562C1115 187.489 1111.34 186.048 1106.57 186.048C1099.96 186.048 1094.66 189.641 1094.66 194.615C1094.66 198.217 1098.12 199.719 1102.51 201.029L1105.45 201.95C1111.73 203.852 1118.53 207.114 1118.53 214.439C1118.53 223.856 1109.43 230.001 1098.38 230.001C1091.79 229.991 1086.02 227.899 1082.76 223.976Z" fill="white"/>
</g>
<defs>
<clipPath id="clip0_2603_512">
<rect width="1122" height="230" fill="white"/>
</clipPath>
</defs>
</svg>
